<?xml version="1.0" encoding="iso-8859-1"?>
<!-- Generator: Adobe Illustrator 16.0.0, SVG Export Plug-In . SVG Version: 6.00 Build 0)  -->
<!DOCTYPE svg PUBLIC "-//W3C//DTD SVG 1.1//EN" "http://www.w3.org/Graphics/SVG/1.1/DTD/svg11.dtd">
<svg version="1.1" id="Capa_1" xmlns="http://www.w3.org/2000/svg" xmlns:xlink="http://www.w3.org/1999/xlink" x="0px" y="0px"
	 width="165.235px" height="165.235px" viewBox="0 0 165.235 165.235" style="enable-background:new 0 0 165.235 165.235;"
	 xml:space="preserve" fill="rgba(255, 255, 255, .95)">
<g>
	<path d="M165.235,136.762c0,2.582-2.095,4.676-4.676,4.676H4.676c-2.582,0-4.676-2.094-4.676-4.676s2.094-4.677,4.676-4.677
		h155.883C163.14,132.085,165.235,134.18,165.235,136.762z M165.235,61.67v56.032c0,2.582-2.095,4.677-4.676,4.677H4.676
		c-2.582,0-4.676-2.095-4.676-4.677V61.67c0-1.522,0.743-2.95,1.982-3.824c1.248-0.877,2.844-1.09,4.277-0.572l35.305,12.69
		l37.473-44.576c1.778-2.122,5.382-2.122,7.161,0l37.473,44.576l35.305-12.69c1.438-0.518,3.021-0.298,4.275,0.572
		C164.493,58.72,165.235,60.148,165.235,61.67z M84.645,35.95c-1.057-0.892-2.627-0.761-3.51,0.305L44.658,79.639L12.184,67.96
		c-1.297-0.472-2.725,0.207-3.193,1.504c-0.466,1.297,0.207,2.725,1.504,3.191l34.111,12.267c0.277,0.097,0.563,0.143,0.843,0.143
		c0.722,0,1.428-0.313,1.909-0.892L84.95,39.454C85.835,38.407,85.699,36.835,84.645,35.95z"/>
</g>
<g>
</g>
<g>
</g>
<g>
</g>
<g>
</g>
<g>
</g>
<g>
</g>
<g>
</g>
<g>
</g>
<g>
</g>
<g>
</g>
<g>
</g>
<g>
</g>
<g>
</g>
<g>
</g>
<g>
</g>
</svg>
